<svg version="1.1" xmlns="http://www.w3.org/2000/svg" xmlns:xlink="http://www.w3.org/1999/xlink" width="80.27162" height="63.32404" viewBox="0,0,80.27162,63.32404"><g transform="translate(-200.05141,-142.05807)"><g stroke-miterlimit="10"><path d="M278.55699,154.7961c7.46233,20.01799 -9.69438,42.70429 -33.21575,49.07252c-23.52138,6.36823 -35.69983,-8.1738 -43.23056,-28.37526c-7.53072,-20.20147 6.8955,-23.898 22.19948,-28.04144c15.30398,-4.14344 46.78451,-12.6738 54.24683,7.34418z" fill="#77ffff" stroke="#000000" stroke-width="0" stroke-linecap="butt" style="" idx="background" draggable="true"></path><path d="M250.3912,191.95804c0,5.51075 -5.87175,11.35438 -12.90271,11.35438c-7.03096,0 -12.73067,-4.46734 -12.73067,-9.97809c0,-5.51075 5.01157,-10.4942 12.04252,-10.4942c7.03096,0 13.59085,3.60717 13.59085,9.11792z" fill="#4ff4f4" stroke="#000000" stroke-width="0" stroke-linecap="butt" style="" idx="play_pause" function="button"></path><path d="M263.92082,187.11692c0,3.12195 -4.01626,6.2088 -7.59883,6.2088c-3.58256,0 -5.9308,-3.64287 -5.9308,-6.76482c0,-3.12195 3.64559,-6.2088 7.22815,-6.2088c3.58256,0 6.30147,3.64287 6.30147,6.76481z" fill="#4ff4f4" stroke="#000000" stroke-width="0" stroke-linecap="butt" style="" idx="end" function="button"></path><path d="M217.52965,180.93486c3.58256,0 7.22816,3.08685 7.22816,6.2088c0,3.12195 -2.34823,6.76481 -5.9308,6.76481c-3.58256,0 -7.59883,-3.08685 -7.59883,-6.2088c0,-3.12195 2.71891,-6.76481 6.30147,-6.76481z" fill="#4ff4f4" stroke="#000000" stroke-width="0" stroke-linecap="butt" style="" idx="begin" function="button"></path><path d="M208.08132,164.54693c0,-1.60568 0,-3.49318 0,-4.41181c0,-1.96863 2.18364,-2.54295 4.3761,-2.58205c6.84188,-0.12203 40.7716,-0.82655 51.4045,-1.04784c2.23631,-0.04654 3.47831,1.21475 3.85812,3.19375c0.3914,2.03937 0.8149,4.51517 0.8409,5.79896c0.04868,2.40326 -1.63145,4.09982 -4.3052,3.97301c-12.1577,-0.57665 -46.53688,-2.1815 -52.58824,-2.1815c-1.78281,0 -3.58619,-1.24939 -3.58619,-2.74249z" fill="#4bedf5" stroke="#000000" stroke-width="0" stroke-linecap="butt" style="" idx="top_textpanel" transparent="true"></path><text transform="translate(209.4708,163.51259) scale(0.1021,0.1021)" font-size="40" xml:space="preserve" fill="#f5f5f5" stroke="none" stroke-width="1" stroke-linecap="butt" font-family="Sans Serif" font-weight="normal" text-anchor="start"><tspan x="0" dy="0" style="" idx="currently_playing" default="Playing: ">Playing:</tspan></text><path d="M268.43307,150.27274c1.05363,4.56573 -4.57446,3.49094 -8.78494,3.20199c-4.21049,-0.28895 -7.15117,-0.82951 -7.96392,-4.35142c-0.81275,-3.52191 2.8023,-4.40621 5.99346,-4.18721c3.19117,0.219 9.70177,0.77091 10.7554,5.33665z" fill="#4ff4f4" stroke="#000000" stroke-width="0" stroke-linecap="butt" style="" idx="dir" function="button"></path><path d="M216.81204,188.06101l-0.37466,3.75629l-1.31618,-0.16797l-0.38594,-8.4985l1.74737,-0.17311l0.48543,3.30879l4.28267,-3.29829l-0.47557,8.87739z" fill="#f5f5f5" stroke="#000000" stroke-width="0" stroke-linecap="butt" style="" idx="icon_begin" transparent="true"></path><path d="M254.37385,191.28285l-0.47557,-8.8774l4.28268,3.2983l0.48543,-3.30879l1.74737,0.1731l-0.38594,8.4985l-1.31618,0.16797l-0.37466,-3.75628z" fill="#f5f5f5" stroke="#000000" stroke-width="0" stroke-linecap="butt" style="" idx="icon_end" transparent="true"></path><g fill="#f5f5f5" stroke-width="0" stroke-linecap="butt"><path d="M233.87174,199.43744v-12.72232h3.13311v12.72232z" stroke="#000000" style="" idx="icon_pause1" transparent="true" show_on="event_play"></path><path d="M238.33405,199.24755v-12.34255h2.94322v12.34255z" stroke="none" style="" idx="icon_pause2" transparent="true" show_on="event_play"></path></g><path d="M256.03536,151.59175l0.269,-3.31772l0.35867,-1.25536l2.95905,-0.08966l0.80701,1.07602h3.85573l-1.43469,3.76606z" fill="#f5f5f5" stroke="#000000" stroke-width="0" stroke-linecap="butt" style="" idx="icon_dir" transparent="true"></path><path d="M252.99136,173.42013c0,0.83962 -0.91039,1.5422 -1.8104,1.5422c-3.05489,0 -20.41044,0.90246 -26.54798,1.22673c-1.34978,0.07131 -2.19796,-0.88272 -2.17338,-2.23416c0.01313,-0.72191 0.22692,-2.11415 0.42451,-3.26095c0.19174,-1.11286 0.81874,-1.82213 1.94769,-1.79596c5.36777,0.12444 22.49642,0.52062 25.95039,0.58924c1.10682,0.02199 2.20917,0.34495 2.20917,1.45198c0,0.51658 0,1.57799 0,2.48092z" fill="#4bedf5" stroke="#000000" stroke-width="0" stroke-linecap="butt" style="" idx="bottom_textpanel" transparent="true"></path><path d="M275.5006,167.3565c-3.87538,2.63391 -4.90932,-3.00183 -6.16306,-7.0317c-1.25374,-4.02987 -1.81357,-6.96694 1.17582,-8.99868c2.98939,-2.03175 5.12153,1.0186 6.07175,4.07287c0.95022,3.05427 2.79087,9.32361 -1.08451,11.95752z" fill="#4ff4f4" stroke="#000000" stroke-width="0" stroke-linecap="butt" style="" idx="close" function="button"></path><text transform="translate(224.90857,173.82119) scale(0.10635,0.10635)" font-size="40" xml:space="preserve" fill="#f5f5f5" stroke="none" stroke-width="1" stroke-linecap="butt" font-family="Sans Serif" font-weight="normal" text-anchor="start"><tspan x="0" dy="0" style="" idx="timer" default="00:00 / 00:00">00:00 / 00:00</tspan></text><path d="M272.16262,163.79462l-1.30127,-1.10644l1.12862,-3.1433l-2.05725,-4.18583l1.46827,-0.27909l1.82516,2.06928l1.85533,-2.2425l1.08498,1.81283l-1.63764,3.04572l1.72739,2.87636l-1.97451,0.3l-1.15557,-1.99485z" fill="#f5f5f5" stroke="#000000" stroke-width="0" stroke-linecap="butt" style="" idx="icon_close" transparent="true"></path><path d="M238.81289,149.85641c0.43009,1.42713 0.76249,4.31641 -1.13932,4.88955c-1.9018,0.57315 -5.04689,-0.33004 -5.79151,-2.80081c-0.74462,-2.47078 1.44433,-3.44939 3.70276,-4.13001c2.25843,-0.68062 2.79796,0.61414 3.22806,2.04127z" fill="#4ff4f4" stroke="#4bedf5" stroke-width="0" stroke-linecap="butt" style="" idx="minus" function="button"></path><path d="M244.76911,145.4947c2.90621,0.87584 5.72299,2.13515 4.7648,5.3146c-0.95819,3.17945 -5.00536,4.34169 -7.45265,3.60415c-2.44729,-0.73754 -2.01955,-4.45553 -1.46609,-6.292c0.55346,-1.83647 1.24773,-3.5026 4.15394,-2.62676z" fill="#4ff4f4" stroke="#4bedf5" stroke-width="0" stroke-linecap="butt" style="" idx="plus" function="button"></path><path d="M233.43342,152.58908l-0.47205,-1.49484l4.95656,-0.23602l-0.07868,1.73086z" fill="#f5f5f5" stroke="#4bedf5" stroke-width="0" stroke-linecap="butt" style="" idx="icon_minus" transparent="true"></path><path d="M241.87102,151.35432l-0.6095,-1.93009l2.29703,-0.19472l-0.21713,-1.96684l1.64656,-0.02387l0.40343,2.00916l2.26989,-0.12849l-0.10159,2.23485l-1.88054,0.16012l-0.06582,2.10671l-1.5108,0.01095l-0.4322,-2.03491z" fill="#f5f5f5" stroke="#4bedf5" stroke-width="0" stroke-linecap="butt" style="" idx="icon_plus" transparent="true"></path><path d="M213.78542,179.68097c0,1.90356 -2.44886,3.78572 -4.63326,3.78572c-2.18441,0 -3.6162,-2.22117 -3.6162,-4.12473c0,-1.90356 2.22284,-3.78571 4.40724,-3.78571c2.1844,0 3.84222,2.22117 3.84222,4.12473z" fill="#4ff4f4" stroke="#000000" stroke-width="0" stroke-linecap="butt" style="" idx="back" function="button"></path><path d="M266.33185,176.39688c2.18441,0 4.40725,1.88215 4.40725,3.78571c0,1.90356 -1.4318,4.12473 -3.61621,4.12473c-2.18441,0 -4.63326,-1.88216 -4.63326,-3.78571c0,-1.90356 1.65781,-4.12473 3.84222,-4.12473z" fill="#4ff4f4" stroke="#000000" stroke-width="0" stroke-linecap="butt" style="" idx="forward" function="button"></path><path d="M208.58044,181.99343l1.76576,-2.09288l-1.22413,-0.26839l-1.16666,1.26268l-0.41165,-3.35814l3.30314,-0.65463l-0.98605,1.3l2.7691,1.39191l-3.3362,3.04891z" fill="#f5f5f5" stroke="none" stroke-width="0.5" stroke-linecap="butt" style="" idx="icon_back" transparent="true"></path><path d="M267.40746,183.22251l-3.33619,-3.04891l2.76909,-1.39191l-0.98604,-1.3l3.30314,0.65464l-0.41165,3.35814l-1.16665,-1.26268l-1.22413,0.26839l1.76576,2.09288z" fill="#f5f5f5" stroke="none" stroke-width="0.5" stroke-linecap="butt" style="" idx="icon_forward" transparent="true"></path><path d="M233.65496,199.64438l0.10275,-12.7406l9.4527,5.54833z" fill="#f5f5f5" stroke="#4bedf5" stroke-width="0" stroke-linecap="butt" style="" idx="icon_play" transparent="true" show_on="event_pause"></path></g></g></svg>